<?xml version="1.0" encoding="utf-8"?>
<!-- Generator: Adobe Illustrator 27.3.1, SVG Export Plug-In . SVG Version: 6.00 Build 0)  -->
<svg version="1.1" id="Layer_1" xmlns="http://www.w3.org/2000/svg" xmlns:xlink="http://www.w3.org/1999/xlink" x="0px" y="0px"
	 viewBox="0 0 400 400" style="enable-background:new 0 0 400 400;" xml:space="preserve">
<style type="text/css">
	.st0{fill:url(#SVGID_1_);}
</style>
<linearGradient id="SVGID_1_" gradientUnits="userSpaceOnUse" x1="93.9832" y1="306.0167" x2="306.0158" y2="93.9841">
	<stop  offset="0" style="stop-color:#F89844"/>
	<stop  offset="1" style="stop-color:#F15F76"/>
</linearGradient>
<path class="st0" d="M256.91,143.09c0,31.43-25.48,63.43-56.91,63.43c-31.43,0-56.91-32-56.91-63.43
	c0-31.43,25.48-56.91,56.91-56.91C231.43,86.19,256.91,111.66,256.91,143.09z M350,200c0,82.71-67.29,150-150,150
	c-82.71,0-150-67.29-150-150S117.29,50,200,50C282.71,50,350,117.29,350,200z M306.49,277.64c0,0.94-0.05,1.86-0.09,2.78
	c16.96-22.38,27.04-50.24,27.04-80.42c0-73.58-59.86-133.44-133.44-133.44c-73.58,0-133.44,59.86-133.44,133.44
	c0,30.18,10.08,58.04,27.04,80.42c-0.04-0.92-0.09-1.84-0.09-2.78c0-31.37,31.31-68.32,62.31-68.32
	c13.07,10.31,26.25,13.63,44.18,13.63s31.11-3.33,44.18-13.63C275.18,209.32,306.49,246.27,306.49,277.64z"/>
</svg>
